/* XPM */
static char *result[] = {
/* columns rows colors chars-per-pixel */
"51 64 2 1",
" 	g None",
".	g #000000",
"                                                   ",
"                                                   ",
"                                                   ",
"                                                   ",
"                                                   ",
"                     .........                     ",
"                 ................                  ",
"               ....................                ",
"             ........................              ",
"            ..........................             ",
"           ............................            ",
"          ..............................           ",
"         ................................          ",
"        ..................................         ",
"        ...................................        ",
"       ................    ................        ",
"       .............          ..............       ",
"      .............            .............       ",
"      ............              .............      ",
"     ............                ............      ",
"     ............                ............      ",
"     ...........                  ............     ",
"    ............                  ............     ",
"    ............                   ...........     ",
"    ...........                    ............    ",
"    ...........                    ............    ",
"   ............                    ............    ",
"   ............                    ............    ",
"   ............                    ............    ",
"   ............                     ...........    ",
"   ............                     ...........    ",
"   ............                     ...........    ",
"   ............                     ...........    ",
"   ............                     ...........    ",
"   ............                     ...........    ",
"   ............                     ...........    ",
"   ............                    ............    ",
"   ............                    ............    ",
"   ............                    ............    ",
"    ...........                    ............    ",
"    ...........                    ............    ",
"    ............                   ...........     ",
"    ............                  ............     ",
"    ............                  ............     ",
"     ............                 ............     ",
"     ............                ............      ",
"     .............              .............      ",
"      .............             ............       ",
"      ..............          ..............       ",
"       ...............       ..............        ",
"       ....................................        ",
"        ..................................         ",
"         ................................          ",
"          ...............................          ",
"           .............................           ",
"            ...........................            ",
"             ........................              ",
"              ......................               ",
"                ..................                 ",
"                   .............                   ",
"                                                   ",
"                                                   ",
"                                                   ",
"                                                   "};
