/* XPM */
static char * 1_xpm[] = {
"38 64 2 1",
" 	g None",
".	g #000000",
"                                      ",
"                                      ",
"                                      ",
"                                      ",
"                                      ",
"                    ...........       ",
"                   ............       ",
"                  .............       ",
"                 ..............       ",
"                ...............       ",
"               ................       ",
"              .................       ",
"             ..................       ",
"            ...................       ",
"           ....................       ",
"          .....................       ",
"         ......................       ",
"        .......................       ",
"       ........................       ",
"      .........................       ",
"     ..........................       ",
"    .............. ............       ",
"   ..............  ............       ",
"    ............   ............       ",
"     ..........    ............       ",
"      ........     ............       ",
"       ......      ............       ",
"        ....       ............       ",
"         ..        ............       ",
"                   ............       ",
"                   ............       ",
"                   ............       ",
"                   ............       ",
"                   ............       ",
"                   ............       ",
"                   ............       ",
"                   ............       ",
"                   ............       ",
"                   ............       ",
"                   ............       ",
"                   ............       ",
"                   ............       ",
"                   ............       ",
"                   ............       ",
"                   ............       ",
"                   ............       ",
"                   ............       ",
"                   ............       ",
"                   ............       ",
"                   ............       ",
"                   ............       ",
"                   ............       ",
"                   ............       ",
"                   ............       ",
"                   ............       ",
"                   ............       ",
"                   ............       ",
"                   ............       ",
"                   ............       ",
"                   ............       ",
"                    ...........       ",
"                                      ",
"                                      ",
"                                      "};
