/* XPM */
static char * 4_xpm[] = {
"53 64 2 1",
" 	g None",
".	g #000000",
"                                                     ",
"                                                     ",
"                                                     ",
"                                                     ",
"                                                     ",
"                         .................           ",
"                        ..................           ",
"                        ..................           ",
"                       ...................           ",
"                       ...................           ",
"                      ....................           ",
"                     .....................           ",
"                     .....................           ",
"                    ......................           ",
"                   .......................           ",
"                   .......................           ",
"                  ........................           ",
"                  ........... ............           ",
"                 ...........  ............           ",
"                ............  ............           ",
"                ...........   ............           ",
"               ...........    ............           ",
"              ............    ............           ",
"              ...........     ............           ",
"             ...........      ............           ",
"            ............      ............           ",
"            ...........       ............           ",
"           ...........        ............           ",
"           ...........        ............           ",
"          ...........         ............           ",
"         ...........          ............           ",
"         ...........          ............           ",
"        ...........           ............           ",
"       ............           ............           ",
"       ...........            ............           ",
"      ...........             ............           ",
"     ............             ............           ",
"     ...........              ............           ",
"    .............................................    ",
"    .............................................    ",
"    .............................................    ",
"    .............................................    ",
"    .............................................    ",
"    .............................................    ",
"    .............................................    ",
"    .............................................    ",
"    .............................................    ",
"    .............................................    ",
"    .............................................    ",
"                              ............           ",
"                              ............           ",
"                              ............           ",
"                              ............           ",
"                              ............           ",
"                              ............           ",
"                              ............           ",
"                              ............           ",
"                              ............           ",
"                              ............           ",
"                              ............           ",
"                               ...........           ",
"                                                     ",
"                                                     ",
"                                                     "};
