/* XPM */
static char * 5_xpm[] = {
"48 64 2 1",
" 	g None",
".	g #000000",
"                                                ",
"                                                ",
"                                                ",
"                                                ",
"     .....................................      ",
"    ......................................      ",
"    ......................................      ",
"    ......................................      ",
"    ......................................      ",
"    ......................................      ",
"    ......................................      ",
"    ......................................      ",
"    ......................................      ",
"    ......................................      ",
"    ......................................      ",
"    ............                                ",
"    ............                                ",
"    ............                                ",
"    ............                                ",
"    ............                                ",
"    ............                                ",
"    ............                                ",
"    ............                                ",
"    ............                                ",
"    ............       ...........              ",
"    ............    .................           ",
"    ............  ....................          ",
"    ............ .......................        ",
"    .....................................       ",
"    ......................................      ",
"    .......................................     ",
"    .......................................     ",
"    ........................................    ",
"    ........................................    ",
"    ..............           ................   ",
"    ............               ..............   ",
"       .......                  ..............  ",
"          ...                    .............  ",
"                                 .............  ",
"                                  ............  ",
"                                  ............  ",
"                                  ............  ",
"                                  ............  ",
"                                  ............  ",
"                                  ............  ",
"        ...                      .............  ",
"       .....                    .............   ",
"      .......                  ..............   ",
"     ...........              ...............   ",
"    ...............         ................    ",
"    ........................................    ",
"   ........................................     ",
"   ........................................     ",
"    ......................................      ",
"     ....................................       ",
"      ..................................        ",
"        ..............................          ",
"          ...........................           ",
"            ......................              ",
"                ...............                 ",
"                                                ",
"                                                ",
"                                                ",
"                                                "};
