/* XPM */
static char * 6_xpm[] = {
"51 64 2 1",
" 	g None",
".	g #000000",
"                                                   ",
"                                                   ",
"                                                   ",
"                                                   ",
"                                                   ",
"                                                   ",
"                                                   ",
"                     ...............               ",
"                  .....................            ",
"                .........................          ",
"               ............................        ",
"             ...............................       ",
"            .................................      ",
"           .................................       ",
"          .................................        ",
"         ..................................        ",
"         ...................  ............         ",
"        ................           .......         ",
"       ...............               ....          ",
"       ..............                 ..           ",
"      ..............                               ",
"      .............                                ",
"      ............                                 ",
"     ............                                  ",
"     ............                                  ",
"     ...........                                   ",
"    ............          .......                  ",
"    ............       ..............              ",
"    ............    ...................            ",
"    ...........    ......................          ",
"    ...........   ........................         ",
"    ...........  ..........................        ",
"    ........................................       ",
"    .........................................      ",
"    .........................................      ",
"    ..........................................     ",
"    ..................         ...............     ",
"    ...............              ..............    ",
"    ..............                .............    ",
"    .............                  ............    ",
"    ............                   ............    ",
"    ............                    ............   ",
"    ............                    ............   ",
"     ...........                    ............   ",
"     ...........                    ............   ",
"     ............                   ............   ",
"     ............                  ............    ",
"      ............                 ............    ",
"      .............               .............    ",
"       .............             ..............    ",
"       ..............           ..............     ",
"        ................     .................     ",
"        .....................................      ",
"         ....................................      ",
"          ..................................       ",
"           ................................        ",
"            ..............................         ",
"             ............................          ",
"              .........................            ",
"                ......................             ",
"                  .................                ",
"                      ..........                   ",
"                                                   ",
"                                                   "};
