/* XPM */
static char * 7_xpm[] = {
"47 64 2 1",
" 	g None",
".	g #000000",
"                                               ",
"                                               ",
"                                               ",
"                                               ",
"    ........................................   ",
"   .........................................   ",
"   .........................................   ",
"   .........................................   ",
"   .........................................   ",
"   .........................................   ",
"   .........................................   ",
"   .........................................   ",
"   .........................................   ",
"   .........................................   ",
"                              .............    ",
"                              .............    ",
"                              ............     ",
"                             .............     ",
"                             ............      ",
"                            .............      ",
"                            ............       ",
"                           .............       ",
"                           .............       ",
"                           ............        ",
"                          .............        ",
"                          ............         ",
"                         .............         ",
"                         ............          ",
"                        .............          ",
"                        .............          ",
"                       .............           ",
"                       .............           ",
"                       ............            ",
"                      .............            ",
"                      ............             ",
"                     .............             ",
"                     ............              ",
"                    .............              ",
"                    .............              ",
"                   .............               ",
"                   .............               ",
"                  .............                ",
"                  .............                ",
"                  ............                 ",
"                 .............                 ",
"                 ............                  ",
"                .............                  ",
"                .............                  ",
"               .............                   ",
"               .............                   ",
"              .............                    ",
"              .............                    ",
"              ............                     ",
"             .............                     ",
"             ............                      ",
"            .............                      ",
"            .............                      ",
"            ............                       ",
"                                               ",
"                                               ",
"                                               ",
"                                               ",
"                                               ",
"                                               "};
