/* XPM */
static char * 8_xpm[] = {
"50 64 2 1",
" 	g None",
".	g #000000",
"                                                  ",
"                                                  ",
"                                                  ",
"                                                  ",
"                  ...............                 ",
"               ......................             ",
"            ...........................           ",
"           ..............................         ",
"         .................................        ",
"        ....................................      ",
"       .....................................      ",
"      .......................................     ",
"      ........................................    ",
"     .........................................    ",
"     .................       ..................   ",
"     ...............            ...............   ",
"    ..............               ..............   ",
"    .............                 .............   ",
"    .............                  ............   ",
"    ............                   ............   ",
"    ............                   ............   ",
"     ...........                   ............   ",
"     ............                  ............   ",
"     .............                ............    ",
"      .............              .............    ",
"      ..............           ..............     ",
"       ................      ................     ",
"        ....................................      ",
"         ..................................       ",
"          ...............................         ",
"            ...........................           ",
"              .......................             ",
"             .........................            ",
"           .............................          ",
"          ................................        ",
"         ..................................       ",
"        ....................................      ",
"       .................    .................     ",
"      ...............          ...............    ",
"     ..............             ..............    ",
"     .............                .............   ",
"    .............                  ............   ",
"    ............                   .............  ",
"    ............                    ............  ",
"   .............                    ............  ",
"   .............                    ............  ",
"   .............                    ............  ",
"   .............                   .............  ",
"    .............                 ..............  ",
"    ..............               ...............  ",
"    ................           ................   ",
"    ...........................................   ",
"     ..........................................   ",
"     .........................................    ",
"      .......................................     ",
"       .....................................      ",
"        ...................................       ",
"          ................................        ",
"           .............................          ",
"             .........................            ",
"                ...................               ",
"                     .........                    ",
"                                                  ",
"                                                  "};
