/* XPM */
static char * 9_xpm[] = {
"50 64 2 1",
" 	g None",
".	g #000000",
"                                                  ",
"                                                  ",
"                 ............                     ",
"              ...................                 ",
"            .......................               ",
"          ...........................             ",
"         .............................            ",
"       ................................           ",
"      ..................................          ",
"     ....................................         ",
"     .....................................        ",
"    .......................................       ",
"   ........................................       ",
"   ................         ................      ",
"  ...............             ..............      ",
"  ..............               ..............     ",
"  .............                 .............     ",
"  .............                  .............    ",
" .............                    ............    ",
" .............                    ............    ",
" .............                    .............   ",
" .............                     ............   ",
" .............                     ............   ",
" .............                     ............   ",
" .............                     ............   ",
" ..............                    .............  ",
"  .............                   ..............  ",
"  ..............                ................  ",
"  ................             .................  ",
"   .................        ....................  ",
"   .............................................  ",
"    ............................................  ",
"    ............................................  ",
"     ...........................................  ",
"      ............................ .............  ",
"       ..........................  .............  ",
"        ........................   .............  ",
"          .....................    .............  ",
"           ..................      ............   ",
"              ............         ............   ",
"                                   ............   ",
"                                  .............   ",
"                                  .............   ",
"                                 .............    ",
"                                 .............    ",
"                                ..............    ",
"                               ..............     ",
"         ..                   ...............     ",
"         ...                 ...............      ",
"        ......             .................      ",
"       ..........        ..................       ",
"       ...................................        ",
"      ....................................        ",
"      ...................................         ",
"     ...................................          ",
"     ..................................           ",
"     .................................            ",
"       .............................              ",
"        ...........................               ",
"          .......................                 ",
"             .................                    ",
"                  .......                         ",
"                                                  ",
"                                                  "};
