/* XPM */
static char * A_xpm[] = {
"64 64 2 1",
" 	g None",
".	g #000000",
"                                                                ",
"                                                                ",
"                        ................                        ",
"                        .................                       ",
"                       ..................                       ",
"                       ..................                       ",
"                      ....................                      ",
"                      ....................                      ",
"                      .....................                     ",
"                     ......................                     ",
"                     ......................                     ",
"                     .......................                    ",
"                    ........................                    ",
"                    ........................                    ",
"                   ............. ............                   ",
"                   ............  ............                   ",
"                   ............  .............                  ",
"                  .............   ............                  ",
"                  ............    ............                  ",
"                 .............    .............                 ",
"                 ............      ............                 ",
"                 ............      .............                ",
"                .............       ............                ",
"                ............        ............                ",
"                ............        .............               ",
"               .............         ............               ",
"               ............          ............               ",
"              .............          .............              ",
"              .............           ............              ",
"              ............            .............             ",
"             .............            .............             ",
"             ............              ............             ",
"            .............              .............            ",
"            .............              .............            ",
"            ............                .............           ",
"           .............                .............           ",
"           .............                 ............           ",
"          .............                  .............          ",
"          .............                  .............          ",
"          .............                  .............          ",
"         ..............................................         ",
"         ..............................................         ",
"         ...............................................        ",
"        ................................................        ",
"        ................................................        ",
"       ..................................................       ",
"       ..................................................       ",
"       ...................................................      ",
"      ....................................................      ",
"      ....................................................      ",
"     ......................................................     ",
"     ..............                           .............     ",
"     .............                            ..............    ",
"    ..............                            ..............    ",
"    ..............                             .............    ",
"    .............                              ..............   ",
"   ..............                              ..............   ",
"   ..............                               .............   ",
"  ..............                                ..............  ",
"  ..............                                ..............  ",
"                                                                ",
"                                                                ",
"                                                                ",
"                                                                "};
