/* XPM */
static char * D_xpm[] = {
"59 64 2 1",
" 	g None",
".	g #000000",
"                                                           ",
"                                                           ",
"                                                           ",
"                                                           ",
"    .............................                          ",
"    .................................                      ",
"    ....................................                   ",
"    ......................................                 ",
"    ........................................               ",
"    ..........................................             ",
"    ...........................................            ",
"    ............................................           ",
"    .............................................          ",
"    ..............................................         ",
"    ...............................................        ",
"    ............                ....................       ",
"    ............                   .................       ",
"    ............                     ................      ",
"    ............                      ...............      ",
"    ............                       ...............     ",
"    ............                        ..............     ",
"    ............                         ..............    ",
"    ............                          .............    ",
"    ............                          .............    ",
"    ............                           .............   ",
"    ............                           .............   ",
"    ............                           .............   ",
"    ............                            ............   ",
"    ............                            ............   ",
"    ............                            .............  ",
"    ............                            .............  ",
"    ............                            .............  ",
"    ............                            .............  ",
"    ............                            .............  ",
"    ............                            .............  ",
"    ............                            .............  ",
"    ............                            .............  ",
"    ............                            ............   ",
"    ............                           .............   ",
"    ............                           .............   ",
"    ............                           .............   ",
"    ............                          ..............   ",
"    ............                          .............    ",
"    ............                         ..............    ",
"    ............                        ..............     ",
"    ............                       ...............     ",
"    ............                      ................     ",
"    ............                     ................      ",
"    ............                   .................       ",
"    ............                 ...................       ",
"    ...............................................        ",
"    ..............................................         ",
"    .............................................          ",
"    ............................................           ",
"    ...........................................            ",
"    ..........................................             ",
"    ........................................               ",
"    .......................................                ",
"    .....................................                  ",
"    ..................................                     ",
"    ..............................                         ",
"                                                           ",
"                                                           ",
"                                                           "};
