/* XPM */
static char * E_xpm[] = {
"47 64 2 1",
" 	g None",
".	g #000000",
"                                               ",
"                                               ",
"                                               ",
"                                               ",
"    .......................................    ",
"    .......................................    ",
"    .......................................    ",
"    .......................................    ",
"    .......................................    ",
"    .......................................    ",
"    .......................................    ",
"    .......................................    ",
"    .......................................    ",
"    .......................................    ",
"    ............                               ",
"    ............                               ",
"    ............                               ",
"    ............                               ",
"    ............                               ",
"    ............                               ",
"    ............                               ",
"    ............                               ",
"    ............                               ",
"    ............                               ",
"    ............                               ",
"    ............                               ",
"    ......................................     ",
"    .......................................    ",
"    .......................................    ",
"    .......................................    ",
"    .......................................    ",
"    .......................................    ",
"    .......................................    ",
"    .......................................    ",
"    .......................................    ",
"    .......................................    ",
"    ......................................     ",
"    ............                               ",
"    ............                               ",
"    ............                               ",
"    ............                               ",
"    ............                               ",
"    ............                               ",
"    ............                               ",
"    ............                               ",
"    ............                               ",
"    ............                               ",
"    ............                               ",
"    ............                               ",
"    .......................................    ",
"    .......................................    ",
"    .......................................    ",
"    .......................................    ",
"    .......................................    ",
"    .......................................    ",
"    .......................................    ",
"    .......................................    ",
"    .......................................    ",
"    .......................................    ",
"    .......................................    ",
"                                               ",
"                                               ",
"                                               ",
"                                               "};
