/* XPM */
static char * G_xpm[] = {
"66 64 2 1",
" 	g None",
".	g #000000",
"                                                                  ",
"                                                                  ",
"                                                                  ",
"                           ...............                        ",
"                        ......................                    ",
"                     ...........................                  ",
"                   ...............................                ",
"                  ..................................              ",
"                .....................................             ",
"               .......................................            ",
"              .........................................           ",
"            ............................................          ",
"            .............................................         ",
"           ...............................................        ",
"          ...................           ...................       ",
"         ..................                ................       ",
"         ................                   .............         ",
"        ................                      .........           ",
"       ................                        ......             ",
"       ...............                          ....              ",
"      ...............                           ..                ",
"      ..............                                              ",
"      ..............                                              ",
"     ..............                                               ",
"     ..............                                               ",
"     .............                                                ",
"     .............                                                ",
"     .............                                                ",
"    .............                                                 ",
"    .............                                                 ",
"    .............               ............................      ",
"    .............               ............................      ",
"    .............               ............................      ",
"    .............               ............................      ",
"    .............               ............................      ",
"    .............               ............................      ",
"    .............               ............................      ",
"     ............               ............................      ",
"     .............              ............................      ",
"     .............              ............................      ",
"     .............                             .............      ",
"     ..............                             ............      ",
"      .............                             ............      ",
"      ..............                            ............      ",
"      ...............                           ............      ",
"       ...............                          ............      ",
"       ...............                          ............      ",
"        ................                       .............      ",
"        .................                     ..............      ",
"         ..................                 ................      ",
"          ...................            ...................      ",
"           .................................................      ",
"           ................................................       ",
"            ..............................................        ",
"             ............................................         ",
"               .........................................          ",
"                ......................................            ",
"                 ....................................             ",
"                   ................................               ",
"                     ............................                 ",
"                       ........................                   ",
"                           ................                       ",
"                                                                  ",
"                                                                  "};
