/* XPM */
static char * I_xpm[] = {
"21 64 2 1",
" 	g None",
".	g #000000",
"                     ",
"                     ",
"                     ",
"                     ",
"                     ",
"     ...........     ",
"     ............    ",
"     ............    ",
"     ............    ",
"     ............    ",
"     ............    ",
"     ............    ",
"     ............    ",
"     ............    ",
"     ............    ",
"     ............    ",
"     ............    ",
"     ............    ",
"     ............    ",
"     ............    ",
"     ............    ",
"     ............    ",
"     ............    ",
"     ............    ",
"     ............    ",
"     ............    ",
"     ............    ",
"     ............    ",
"     ............    ",
"     ............    ",
"     ............    ",
"     ............    ",
"     ............    ",
"     ............    ",
"     ............    ",
"     ............    ",
"     ............    ",
"     ............    ",
"     ............    ",
"     ............    ",
"     ............    ",
"     ............    ",
"     ............    ",
"     ............    ",
"     ............    ",
"     ............    ",
"     ............    ",
"     ............    ",
"     ............    ",
"     ............    ",
"     ............    ",
"     ............    ",
"     ............    ",
"     ............    ",
"     ............    ",
"     ............    ",
"     ............    ",
"     ............    ",
"     ............    ",
"     ...........     ",
"                     ",
"                     ",
"                     ",
"                     "};
