/* XPM */
static char * J_xpm[] = {
"43 64 2 1",
" 	g None",
".	g #000000",
"                                           ",
"                                           ",
"                                           ",
"                                           ",
"                                           ",
"                           ...........     ",
"                          ............     ",
"                          ............     ",
"                          ............     ",
"                          ............     ",
"                          ............     ",
"                          ............     ",
"                          ............     ",
"                          ............     ",
"                          ............     ",
"                          ............     ",
"                          ............     ",
"                          ............     ",
"                          ............     ",
"                          ............     ",
"                          ............     ",
"                          ............     ",
"                          ............     ",
"                          ............     ",
"                          ............     ",
"                          ............     ",
"                          ............     ",
"                          ............     ",
"                          ............     ",
"                          ............     ",
"                          ............     ",
"                          ............     ",
"                          ............     ",
"                          ............     ",
"                          ............     ",
"                          ............     ",
"                          ............     ",
"                          ............     ",
"                          ............     ",
"                          ............     ",
"                          ............     ",
"                          ............     ",
"                          ............     ",
"                          ............     ",
"                          ............     ",
"                          ............     ",
"                          ............     ",
"                         .............     ",
"        .                .............     ",
"        ...             ..............     ",
"       .....           ..............      ",
"      .........     .................      ",
"      ...............................      ",
"     ...............................       ",
"     ...............................       ",
"    ...............................        ",
"    ..............................         ",
"    .............................          ",
"     ...........................           ",
"      .........................            ",
"        .....................              ",
"           ...............                 ",
"                                           ",
"                                           "};
