/* XPM */
static char * K_xpm[] = {
"54 64 2 1",
" 	g None",
".	g #000000",
"                                                      ",
"                                                      ",
"                                                      ",
"                                                      ",
"                                                      ",
"    ............                   ..............     ",
"    ............                  ...............     ",
"    ............                 ...............      ",
"    ............                 ..............       ",
"    ............                ..............        ",
"    ............               ..............         ",
"    ............              ...............         ",
"    ............             ...............          ",
"    ............             ..............           ",
"    ............            ..............            ",
"    ............           ..............             ",
"    ............          ..............              ",
"    ............         ..............               ",
"    ............         ..............               ",
"    ............        ..............                ",
"    ............       ..............                 ",
"    ............      ..............                  ",
"    ............     ..............                   ",
"    ............     .............                    ",
"    ............    .............                     ",
"    ............   ..............                     ",
"    ............  ..............                      ",
"    ............ ..............                       ",
"    ............ .............                        ",
"    .........................                         ",
"    ........................                          ",
"    ........................                          ",
"    .........................                         ",
"    ..........................                        ",
"    ...........................                       ",
"    ............................                      ",
"    ............................                      ",
"    .............................                     ",
"    ..............................                    ",
"    ...............  ..............                   ",
"    ..............    ..............                  ",
"    .............      ..............                 ",
"    ............       ..............                 ",
"    ............        ..............                ",
"    ............         ..............               ",
"    ............          ..............              ",
"    ............          ...............             ",
"    ............           ..............             ",
"    ............            ..............            ",
"    ............             ..............           ",
"    ............              ..............          ",
"    ............              ...............         ",
"    ............               ..............         ",
"    ............                ..............        ",
"    ............                 ..............       ",
"    ............                 ...............      ",
"    ............                  ...............     ",
"    ............                   ..............     ",
"    ............                    ..............    ",
"    ............                    ...............   ",
"                                                      ",
"                                                      ",
"                                                      ",
"                                                      "};
