/* XPM */
static char * L_xpm[] = {
"45 64 2 1",
" 	g None",
".	g #000000",
"                                             ",
"                                             ",
"                                             ",
"                                             ",
"     ............                            ",
"     ............                            ",
"     ............                            ",
"     ............                            ",
"     ............                            ",
"     ............                            ",
"     ............                            ",
"     ............                            ",
"     ............                            ",
"     ............                            ",
"     ............                            ",
"     ............                            ",
"     ............                            ",
"     ............                            ",
"     ............                            ",
"     ............                            ",
"     ............                            ",
"     ............                            ",
"     ............                            ",
"     ............                            ",
"     ............                            ",
"     ............                            ",
"     ............                            ",
"     ............                            ",
"     ............                            ",
"     ............                            ",
"     ............                            ",
"     ............                            ",
"     ............                            ",
"     ............                            ",
"     ............                            ",
"     ............                            ",
"     ............                            ",
"     ............                            ",
"     ............                            ",
"     ............                            ",
"     ............                            ",
"     ............                            ",
"     ............                            ",
"     ............                            ",
"     ............                            ",
"     ............                            ",
"     ............                            ",
"     ............                            ",
"     ............                            ",
"     ............                            ",
"     ....................................    ",
"     ....................................    ",
"     ....................................    ",
"     ....................................    ",
"     ....................................    ",
"     ....................................    ",
"     ....................................    ",
"     ....................................    ",
"     ....................................    ",
"     ....................................    ",
"     ....................................    ",
"                                             ",
"                                             ",
"                                             "};
