/* XPM */
static char * M_xpm[] = {
"69 64 2 1",
" 	g None",
".	g #000000",
"                                                                     ",
"                                                                     ",
"                                                                     ",
"                                                                     ",
"    .................                            .................   ",
"    ..................                          ..................   ",
"    ..................                          ..................   ",
"    ..................                          ..................   ",
"    ...................                        ...................   ",
"    ...................                        ...................   ",
"    ....................                      ....................   ",
"    ....................                      ....................   ",
"    ....................                      ....................   ",
"    .....................                    .....................   ",
"    .....................                    .....................   ",
"    ......................                  ......................   ",
"    ......................                  ......................   ",
"    ......................                  ......................   ",
"    .......................                .......................   ",
"    .......................                .......................   ",
"    ........................              ........................   ",
"    ........................              ........................   ",
"    ............ ...........              ........... ............   ",
"    ............ ............            ............ ............   ",
"    ............  ...........            ...........  ............   ",
"    ............  ............          ............  ............   ",
"    ............   ...........          ...........   ............   ",
"    ............   ...........          ...........   ............   ",
"    ............   ............        ............   ............   ",
"    ............    ...........        ...........    ............   ",
"    ............    ...........        ...........    ............   ",
"    ............     ...........      ...........     ............   ",
"    ............     ...........      ...........     ............   ",
"    ............     ............    ............     ............   ",
"    ............      ...........    ...........      ............   ",
"    ............      ...........    ...........      ............   ",
"    ............      ............  ...........       ............   ",
"    ............       ...........  ...........       ............   ",
"    ............       ........................       ............   ",
"    ............        ......................        ............   ",
"    ............        ......................        ............   ",
"    ............        ......................        ............   ",
"    ............         ....................         ............   ",
"    ............         ....................         ............   ",
"    ............          ..................          ............   ",
"    ............          ..................          ............   ",
"    ............          ..................          ............   ",
"    ............           ................           ............   ",
"    ............           ................           ............   ",
"    ............            ..............            ............   ",
"    ............            ..............            ............   ",
"    ............            ..............            ............   ",
"    ............             ............             ............   ",
"    ............             ............             ............   ",
"    ............              ..........              ............   ",
"    ............              ..........              ............   ",
"    ............              ..........              ............   ",
"    ............               ........               ............   ",
"    ............               ........               ............   ",
"    ............                ......                ............   ",
"    ............                ......                ............   ",
"                                                                     ",
"                                                                     ",
"                                                                     "};
