/* XPM */
static char * N_xpm[] = {
"56 64 2 1",
" 	g None",
".	g #000000",
"                                                        ",
"                                                        ",
"                                                        ",
"                                                        ",
"  .............                         ............    ",
"  ..............                        ............    ",
"  ..............                        ............    ",
"  ...............                       ............    ",
"  ................                      ............    ",
"  ................                      ............    ",
"  .................                     ............    ",
"  ..................                    ............    ",
"  ...................                   ............    ",
"  ...................                   ............    ",
"  ....................                  ............    ",
"  .....................                 ............    ",
"  .....................                 ............    ",
"  ......................                ............    ",
"  .......................               ............    ",
"  ........................              ............    ",
"  ........................              ............    ",
"  .........................             ............    ",
"  ..........................            ............    ",
"  ............ .............            ............    ",
"  ............  .............           ............    ",
"  ............  ..............          ............    ",
"  ............   ..............         ............    ",
"  ............    .............         ............    ",
"  ............    ..............        ............    ",
"  ............     ..............       ............    ",
"  ............      .............       ............    ",
"  ............      ..............      ............    ",
"  ............       ..............     ............    ",
"  ............        ..............    ............    ",
"  ............         .............    ............    ",
"  ............         ..............   ............    ",
"  ............          ..............  ............    ",
"  ............           .............  ............    ",
"  ............           .............. ............    ",
"  ............            ..........................    ",
"  ............             .........................    ",
"  ............              ........................    ",
"  ............              ........................    ",
"  ............               .......................    ",
"  ............                ......................    ",
"  ............                ......................    ",
"  ............                 .....................    ",
"  ............                  ....................    ",
"  ............                  ....................    ",
"  ............                   ...................    ",
"  ............                    ..................    ",
"  ............                     .................    ",
"  ............                     .................    ",
"  ............                      ................    ",
"  ............                       ...............    ",
"  ............                       ...............    ",
"  ............                        ..............    ",
"  ............                         .............    ",
"  ............                          ............    ",
"  ............                          ............    ",
"                                                        ",
"                                                        ",
"                                                        ",
"                                                        "};
