/* XPM */
static char * Q_xpm[] = {
"63 64 2 1",
" 	g None",
".	g #000000",
"                                                               ",
"                                                               ",
"                                                               ",
"                                                               ",
"                        .............                          ",
"                     ....................                      ",
"                  .........................                    ",
"                .............................                  ",
"               ................................                ",
"             ...................................               ",
"            .....................................              ",
"           .......................................             ",
"          .........................................            ",
"         ...........................................           ",
"        ..................         ..................          ",
"        ...............               ................         ",
"       ...............                  ..............         ",
"      ..............                     ..............        ",
"      .............                       .............        ",
"     .............                         .............       ",
"     .............                         .............       ",
"     ............                           .............      ",
"    .............                            ............      ",
"    ............                             ............      ",
"    ............                             ............      ",
"    ...........                               ............     ",
"   ............                               ............     ",
"   ............                               ............     ",
"   ............                               ............     ",
"   ............                               ............     ",
"   ............                               ............     ",
"   ............                               ............     ",
"   ............                               ............     ",
"   ............                               ............     ",
"   ............                      .        ............     ",
"   ............                     ...       ............     ",
"    ...........                    .....      ............     ",
"    ............                  .......    ............      ",
"    ............                ..........   ............      ",
"    ............               ............  ............      ",
"     ............             ............. .............      ",
"     .............             .........................       ",
"     .............              ........................       ",
"      .............              ......................        ",
"      ..............             ......................        ",
"       ..............             ....................         ",
"       ................            ...................         ",
"        .................          ..................          ",
"         ...........................................           ",
"          ..........................................           ",
"           .........................................           ",
"            .........................................          ",
"             .........................................         ",
"              .........................................        ",
"                .......................................        ",
"                  ....................................         ",
"                    .....................   ........           ",
"                       ...............       ......            ",
"                                             .....             ",
"                                              ...              ",
"                                                               ",
"                                                               ",
"                                                               ",
"                                                               "};
