/* XPM */
static char * R_xpm[] = {
"55 64 2 1",
" 	g None",
".	g #000000",
"                                                       ",
"                                                       ",
"                                                       ",
"                                                       ",
"      ................................                 ",
"      ...................................              ",
"      .....................................            ",
"      .......................................          ",
"      ........................................         ",
"      .........................................        ",
"      ..........................................       ",
"      ..........................................       ",
"      ...........................................      ",
"      ...........................................      ",
"      ............               .................     ",
"      ............                  ..............     ",
"      ............                   ..............    ",
"      ............                    .............    ",
"      ............                    .............    ",
"      ............                     ............    ",
"      ............                     ............    ",
"      ............                     ............    ",
"      ............                     ............    ",
"      ............                     ............    ",
"      ............                    .............    ",
"      ............                    .............    ",
"      ............                   ..............    ",
"      ............                  ..............     ",
"      ............                ................     ",
"      ............................................     ",
"      ...........................................      ",
"      ...........................................      ",
"      ..........................................       ",
"      .........................................        ",
"      ........................................         ",
"      .......................................          ",
"      ......................................           ",
"      ....................................             ",
"      .................................                ",
"      ..................................               ",
"      ............         .............               ",
"      ............          .............              ",
"      ............          .............              ",
"      ............           .............             ",
"      ............           ..............            ",
"      ............            .............            ",
"      ............            ..............           ",
"      ............             .............           ",
"      ............              .............          ",
"      ............              ..............         ",
"      ............               .............         ",
"      ............               ..............        ",
"      ............                .............        ",
"      ............                ..............       ",
"      ............                 .............       ",
"      ............                 ..............      ",
"      ............                  ..............     ",
"      ............                  ..............     ",
"      ............                   ..............    ",
"      ............                    .............    ",
"                                                       ",
"                                                       ",
"                                                       ",
"                                                       "};
