/* XPM */
static char * S_xpm[] = {
"45 64 2 1",
" 	g None",
".	g #000000",
"                                             ",
"                                             ",
"                                             ",
"                                             ",
"                   .......                   ",
"              ..................             ",
"           ........................          ",
"         ............................        ",
"        ...............................      ",
"       .................................     ",
"      ....................................   ",
"     ......................................  ",
"    .......................................  ",
"    ......................................   ",
"   ................     .................    ",
"   .............            ............     ",
"  .............                .........     ",
"  ............                   ......      ",
"  ............                    ....       ",
"  ...........                       .        ",
"  ............                               ",
"  ............                               ",
"  .............                              ",
"  ..............                             ",
"  .................                          ",
"   ....................                      ",
"   ........................                  ",
"   ............................              ",
"    .............................            ",
"     ...............................         ",
"      ................................       ",
"       ................................      ",
"         ...............................     ",
"          ...............................    ",
"             .............................   ",
"                ...........................  ",
"                    .......................  ",
"                        ...................  ",
"                            ................ ",
"                              .............. ",
"                               ............. ",
"                                ............ ",
"                                ............ ",
"     ..                          ........... ",
"     ....                        ........... ",
"    ......                      ............ ",
"   .........                    ............ ",
"   ...........                 ............. ",
"  ..............             ..............  ",
" ....................    ..................  ",
"..........................................   ",
"..........................................   ",
" ........................................    ",
"   .....................................     ",
"    ...................................      ",
"      ................................       ",
"        .............................        ",
"          .........................          ",
"             ...................             ",
"                   ........                  ",
"                                             ",
"                                             ",
"                                             ",
"                                             "};
