/* XPM */
static char * T_xpm[] = {
"55 64 2 1",
" 	g None",
".	g #000000",
"                                                       ",
"                                                       ",
"                                                       ",
"                                                       ",
"      .............................................    ",
"      .............................................    ",
"      .............................................    ",
"      .............................................    ",
"      .............................................    ",
"      .............................................    ",
"      .............................................    ",
"      .............................................    ",
"      .............................................    ",
"      .............................................    ",
"                      .............                    ",
"                      ............                     ",
"                      ............                     ",
"                      ............                     ",
"                      ............                     ",
"                      ............                     ",
"                      ............                     ",
"                      ............                     ",
"                      ............                     ",
"                      ............                     ",
"                      ............                     ",
"                      ............                     ",
"                      ............                     ",
"                      ............                     ",
"                      ............                     ",
"                      ............                     ",
"                      ............                     ",
"                      ............                     ",
"                      ............                     ",
"                      ............                     ",
"                      ............                     ",
"                      ............                     ",
"                      ............                     ",
"                      ............                     ",
"                      ............                     ",
"                      ............                     ",
"                      ............                     ",
"                      ............                     ",
"                      ............                     ",
"                      ............                     ",
"                      ............                     ",
"                      ............                     ",
"                      ............                     ",
"                      ............                     ",
"                      ............                     ",
"                      ............                     ",
"                      ............                     ",
"                      ............                     ",
"                      ............                     ",
"                      ............                     ",
"                      ............                     ",
"                      ............                     ",
"                      ............                     ",
"                      ............                     ",
"                      ............                     ",
"                       ...........                     ",
"                                                       ",
"                                                       ",
"                                                       ",
"                                                       "};
