/* XPM */
static char * U_xpm[] = {
"57 64 2 1",
" 	g None",
".	g #000000",
"                                                         ",
"                                                         ",
"                                                         ",
"                                                         ",
"                                                         ",
"    ............                          ...........    ",
"    ............                         ............    ",
"    ............                         ............    ",
"    ............                         ............    ",
"    ............                         ............    ",
"    ............                         ............    ",
"    ............                         ............    ",
"    ............                         ............    ",
"    ............                         ............    ",
"    ............                         ............    ",
"    ............                         ............    ",
"    ............                         ............    ",
"    ............                         ............    ",
"    ............                         ............    ",
"    ............                         ............    ",
"    ............                         ............    ",
"    ............                         ............    ",
"    ............                         ............    ",
"    ............                         ............    ",
"    ............                         ............    ",
"    ............                         ............    ",
"    ............                         ............    ",
"    ............                         ............    ",
"    ............                         ............    ",
"    ............                         ............    ",
"    ............                         ............    ",
"    ............                         ............    ",
"    ............                         ............    ",
"    ............                         ............    ",
"    ............                         ............    ",
"    ............                         ............    ",
"    ............                         ............    ",
"    ............                         ............    ",
"    ............                         ............    ",
"    ............                         ............    ",
"    ............                         ............    ",
"    ............                         ............    ",
"    ............                         ............    ",
"    .............                       .............    ",
"    .............                       .............    ",
"     .............                     .............     ",
"     ..............                    .............     ",
"     ..............                   ..............     ",
"      ...............               ...............      ",
"      .................            ................      ",
"       ...................     ...................       ",
"       ...........................................       ",
"        .........................................        ",
"         .......................................         ",
"          .....................................          ",
"           ...................................           ",
"            .................................            ",
"              ..............................             ",
"               ...........................               ",
"                  .....................                  ",
"                      .............                      ",
"                                                         ",
"                                                         ",
"                                                         "};
