/* XPM */
static char * W_xpm[] = {
"79 64 2 1",
" 	g None",
".	g #000000",
"                                                                               ",
"                                                                               ",
"                                                                               ",
"                                                                               ",
"                                                                               ",
"  .............                    .........                    .............  ",
"  .............                   ..........                   ..............  ",
"  .............                   ..........                   .............   ",
"  .............                   ...........                  .............   ",
"   .............                 ............                  .............   ",
"   .............                 ............                 .............    ",
"   .............                 ............                 .............    ",
"    ............                 .............                .............    ",
"    .............               ..............                .............    ",
"    .............               ..............               .............     ",
"    .............               ...............              .............     ",
"     ............               ...............              .............     ",
"     .............             ................              ............      ",
"     .............             ................             .............      ",
"      ............             .................            .............      ",
"      ............             .................            .............      ",
"      .............           ..................            ............       ",
"      .............           ..................           .............       ",
"       ............           ...................          .............       ",
"       ............          .......... .........          ............        ",
"       .............         .........  .........          ............        ",
"        ............         .........  .........         .............        ",
"        ............         .........  ..........        .............        ",
"        ............        ..........   .........        ............         ",
"        .............       .........    .........        ............         ",
"         ............       .........    .........        ............         ",
"         ............       .........    ..........      ............          ",
"         ............      ..........     .........      ............          ",
"          ............     .........      .........      ............          ",
"          ............     .........      ..........     ............          ",
"          ............     .........      ..........    ............           ",
"          ............    ..........       .........    ............           ",
"           ............   .........        .........    ............           ",
"           ............   .........        ..........   ...........            ",
"           ............   .........         .........  ............            ",
"            ...........  ..........         .........  ............            ",
"            ...........  .........          .........  ............            ",
"            ............ .........          .......... ...........             ",
"            ......................           .....................             ",
"             .....................           .....................             ",
"             ....................            ....................              ",
"             ....................            ....................              ",
"              ...................             ...................              ",
"              ...................             ...................              ",
"              ..................              ..................               ",
"              ..................              ..................               ",
"               .................               .................               ",
"               .................               ................                ",
"               ................                ................                ",
"                ...............                ................                ",
"                ...............                 ...............                ",
"                ...............                 ..............                 ",
"                ..............                  ..............                 ",
"                 .............                  ..............                 ",
"                 .............                   ............                  ",
"                                                                               ",
"                                                                               ",
"                                                                               ",
"                                                                               "};
