/* XPM */
static char * X_xpm[] = {
"62 64 2 1",
" 	g None",
".	g #000000",
"                                                              ",
"                                                              ",
"                                                              ",
"                                                              ",
"   ..............                         ...............     ",
"   ...............                       ...............      ",
"    ..............                       ...............      ",
"     ..............                     ...............       ",
"     ...............                   ...............        ",
"      ..............                   ..............         ",
"       ..............                 ...............         ",
"       ...............                ..............          ",
"        ..............               ..............           ",
"         ..............             ...............           ",
"         ...............            ..............            ",
"          ..............           ..............             ",
"           ..............         ...............             ",
"            ..............        ..............              ",
"            ..............       ..............               ",
"             ..............     ..............                ",
"              ..............    ..............                ",
"              ..............   ..............                 ",
"               .............. ..............                  ",
"                ............................                  ",
"                ...........................                   ",
"                 .........................                    ",
"                  ........................                    ",
"                  .......................                     ",
"                   .....................                      ",
"                    ...................                       ",
"                     ..................                       ",
"                     .................                        ",
"                     .................                        ",
"                    ...................                       ",
"                    ....................                      ",
"                   ......................                     ",
"                  .......................                     ",
"                  ........................                    ",
"                 ..........................                   ",
"                ...........................                   ",
"               .............................                  ",
"               .............. ...............                 ",
"              ..............   ..............                 ",
"             ...............    ..............                ",
"             ..............     ...............               ",
"            ..............       ...............              ",
"           ...............        ..............              ",
"          ...............          ..............             ",
"          ..............           ...............            ",
"         ..............             ..............            ",
"        ...............              ..............           ",
"        ..............               ...............          ",
"       ..............                 ..............          ",
"      ...............                  ..............         ",
"      ..............                   ...............        ",
"     ..............                     ...............       ",
"    ...............                      ..............       ",
"   ...............                       ...............      ",
"   ..............                         ...............     ",
"  ...............                          ..............     ",
" ...............                           ...............    ",
"                                                              ",
"                                                              ",
"                                                              "};
