/* XPM */
static char * Z_xpm[] = {
"53 64 2 1",
" 	g None",
".	g #000000",
"                                                     ",
"                                                     ",
"                                                     ",
"                                                     ",
"    ..........................................       ",
"    ..........................................       ",
"    ..........................................       ",
"    ..........................................       ",
"    ..........................................       ",
"    ..........................................       ",
"    ..........................................       ",
"    ..........................................       ",
"    ..........................................       ",
"    ..........................................       ",
"                              ...............        ",
"                              ...............        ",
"                             ...............         ",
"                            ...............          ",
"                           ...............           ",
"                           ...............           ",
"                          ...............            ",
"                         ...............             ",
"                        ...............              ",
"                        ...............              ",
"                       ...............               ",
"                      ...............                ",
"                     ................                ",
"                     ...............                 ",
"                    ...............                  ",
"                   ...............                   ",
"                   ...............                   ",
"                  ...............                    ",
"                 ...............                     ",
"                ...............                      ",
"                ...............                      ",
"               ...............                       ",
"              ...............                        ",
"             ...............                         ",
"             ...............                         ",
"            ...............                          ",
"           ...............                           ",
"          ................                           ",
"          ...............                            ",
"         ...............                             ",
"        ...............                              ",
"        ...............                              ",
"       ...............                               ",
"      ...............                                ",
"     ...............                                 ",
"     .........................................       ",
"    ...........................................      ",
"    ...........................................      ",
"    ...........................................      ",
"    ...........................................      ",
"    ...........................................      ",
"    ...........................................      ",
"    ...........................................      ",
"    ...........................................      ",
"    ...........................................      ",
"    ..........................................       ",
"                                                     ",
"                                                     ",
"                                                     ",
"                                                     "};
